inDegrees=yes
name=ik_OwnShooting_orientations2
DataType=double
version=3
OpenSimVersion=4.3-2021-08-27-4bc7ad9
endheader
time	pelvis_tilt	pelvis_list	pelvis_rotation	pelvis_tx	pelvis_ty	pelvis_tz	hip_flexion_r	hip_adduction_r	hip_rotation_r	knee_angle_r	knee_angle_r_beta	ankle_angle_r	subtalar_angle_r	mtp_angle_r	hip_flexion_l	hip_adduction_l	hip_rotation_l	knee_angle_l	knee_angle_l_beta	ankle_angle_l	subtalar_angle_l	mtp_angle_l	lumbar_extension	lumbar_bending	lumbar_rotation	arm_flex_r	arm_add_r	arm_rot_r	elbow_flex_r	pro_sup_r	wrist_flex_r	wrist_dev_r	arm_flex_l	arm_add_l	arm_rot_l	elbow_flex_l	pro_sup_l	wrist_flex_l	wrist_dev_l
5	5.88008374338959	4.469807652965716	63.12131337311715	0	0.9399999999999999	0	41.79384125380547	-10.5214774357826	0	59.36315242351226	1.03608246415354	-5.189160117561026	0	0	41.79384125380547	-10.5214774357826	0	59.36315242351226	1.03608246415354	-5.189160117561026	0	0	-5.463558299611244	1.000674996621121	-0.5385435221606171	0.3264025761822881	3.652493267047952	-1.033752574157793	76.94549553142339	44.98289113120316	0	0	0	-10.16139613373227	0	76.94549553142339	44.98289113120316	0	0
5.01	5.894903834771611	4.487663592663822	63.123660902975	0	0.9399999999999999	0	41.79983951166517	-10.51917265539199	0	59.36411297067556	1.036099228864161	-5.188256709664373	0	0	41.79983951166517	-10.51917265539199	0	59.36411297067556	1.036099228864161	-5.188256709664373	0	0	-5.487326303986547	0.9995070970912789	-0.5348618360759131	0.31617855128388	3.660020498738966	-1.004450673802826	76.94185844331606	44.982958636604	0	0	0	-10.16636326440068	0	76.94185844331606	44.982958636604	0	0
5.02	5.913169442826728	4.518053234765342	63.12717630541571	0	0.9399999999999999	0	41.80930595128272	-10.51495431778902	0	59.36561558546554	1.036125454439635	-5.186452376780799	0	0	41.80930595128272	-10.51495431778902	0	59.36561558546554	1.036125454439635	-5.186452376780799	0	0	-5.512970902536914	0.9978389405240145	-0.5436976095868986	0.2995343171122324	3.651779851297928	-0.9733853523419069	76.93611936631143	44.98307606514473	0	0	0	-10.17403453335447	0	76.93611936631143	44.98307606514473	0	0
5.03	5.93121988053179	4.538663449149373	63.12224102624272	0	0.9399999999999999	0	41.81870359986495	-10.51078846149092	0	59.36710807024438	1.036151503213061	-5.184673203704558	0	0	41.81870359986495	-10.51078846149092	0	59.36710807024438	1.036151503213061	-5.184673203704558	0	0	-5.530330936623434	0.9967477307822018	-0.5461717775837417	0.2874287849508337	3.645394233100475	-0.9219365714306504	76.9304219439455	44.98319218080383	0	0	0	-10.18166015377196	0	76.9304219439455	44.98319218080383	0	0
5.04	5.934016454965793	4.533624622593069	63.1320718725806	0	0.9399999999999999	0	41.82780677459018	-10.50669669108506	0	59.36855129413978	1.03617669222188	-5.182916670689627	0	0	41.82780677459018	-10.50669669108506	0	59.36855129413978	1.03617669222188	-5.182916670689627	0	0	-5.525676520704656	0.9972813173741051	-0.5528940906522	0.2779893563321416	3.646479590015258	-0.8921021859518913	76.92490317445149	44.98330579888611	0	0	0	-10.18902353473763	0	76.92490317445149	44.98330579888611	0	0
5.05	5.919205885831257	4.560152168367496	63.13563832771136	0	0.9399999999999999	0	41.83936542612558	-10.5010954715201	0	59.37037376192013	1.036208500285158	-5.180425396288912	0	0	41.83936542612558	-10.5010954715201	0	59.37037376192013	1.036208500285158	-5.180425396288912	0	0	-5.529122217503366	0.9605600387737866	-0.5583890818171785	0.2524954098282699	3.641722234277972	-0.8451022551321317	76.91789647620116	44.98345775307091	0	0	0	-10.19824926079176	0	76.91789647620116	44.98345775307091	0	0
5.06	5.922157105708711	4.563926058642753	63.13229221384629	0	0.9399999999999999	0	41.84526723370928	-10.49863824484005	0	59.37131408508341	1.03622491202039	-5.179411585095792	0	0	41.84526723370928	-10.49863824484005	0	59.37131408508341	1.03622491202039	-5.179411585095792	0	0	-5.541499536568267	0.9457908115269505	-0.5583061768989031	0.2330338329861288	3.657284038897795	-0.8149866417566153	76.91431819385583	44.98352768753882	0	0	0	-10.20308460648982	0	76.91431819385583	44.98352768753882	0	0
5.07	5.923101068931268	4.576872770206702	63.13502399665411	0	0.9399999999999999	0	41.8558371307225	-10.49342844918786	0	59.37297871769916	1.036253965340371	-5.177071842738939	0	0	41.8558371307225	-10.49342844918786	0	59.37297871769916	1.036253965340371	-5.177071842738939	0	0	-5.541716191611644	0.9421383082703787	-0.565418535263516	0.2250172913658423	3.634300054660301	-0.8151038886130851	76.90791099807757	44.98366819185311	0	0	0	-10.21150214773865	0	76.90791099807757	44.98366819185311	0	0
5.08	5.961572732685394	4.620886921269788	63.14392599123765	0	0.9399999999999999	0	41.86090788203025	-10.4921748484829	0	59.37381089603342	1.036268489592268	-5.176738566495509	0	0	41.86090788203025	-10.4921748484829	0	59.37381089603342	1.036268489592268	-5.176738566495509	0	0	-5.584698960135262	0.9435396419262556	-0.5671268580668108	0.1938059290925058	3.653805978848762	-0.7829408598993843	76.90483512493896	44.98371170048815	0	0	0	-10.21594517015634	0	76.90483512493896	44.98371170048815	0	0
5.09	5.972387574290816	4.648443402068217	63.13647752437002	0	0.9399999999999999	0	41.87253224032079	-10.48670954661713	0	59.37565008539703	1.036300589502231	-5.174331566951052	0	0	41.87253224032079	-10.48670954661713	0	59.37565008539703	1.036300589502231	-5.174331566951052	0	0	-5.602054844951235	0.9464277003875367	-0.5576225958013072	0.1787002505557536	3.63337552837555	-0.7520564129020539	76.89778828710979	44.98386111985968	0	0	0	-10.22529240999401	0	76.89778828710979	44.98386111985968	0	0
5.1	5.994454774802136	4.678662223676334	63.13923227701968	0	0.9399999999999999	0	41.8850446495444	-10.48095644409391	0	59.37763398117669	1.036335215015602	-5.171821055774466	0	0	41.8850446495444	-10.48095644409391	0	59.37763398117669	1.036335215015602	-5.171821055774466	0	0	-5.630165417408154	0.9557141166916328	-0.5530917083111127	0.1432515991343618	3.623046228805062	-0.7415050587317791	76.89020288323061	44.98401942050507	0	0	0	-10.2354003610339	0	76.89020288323061	44.98401942050507	0	0
5.11	6.012970520033762	4.697649300404809	63.14676352514019	0	0.9399999999999999	0	41.89139441102841	-10.47852611431201	0	59.37865318427775	1.036353003465462	-5.170857148959475	0	0	41.89139441102841	-10.47852611431201	0	59.37865318427775	1.036353003465462	-5.170857148959475	0	0	-5.651083122361674	0.9612846552881449	-0.5582394670913722	0.1179671556828855	3.635480515443597	-0.7189198597027077	76.88635263554694	44.98409037041898	0	0	0	-10.24068852371228	0	76.88635263554694	44.98409037041898	0	0
5.12	6.021066221067189	4.712730556721393	63.15097908391925	0	0.9399999999999999	0	41.9007067581312	-10.47448640302997	0	59.38013634130503	1.036378889438912	-5.169138160664484	0	0	41.9007067581312	-10.47448640302997	0	59.38013634130503	1.036378889438912	-5.169138160664484	0	0	-5.667914282829616	0.9571621980134344	-0.5499659639932369	0.1145873369309078	3.627514933038877	-0.6712595690966243	76.88070677222115	44.98420345399486	0	0	0	-10.24829613170239	0	76.88070677222115	44.98420345399486	0	0
5.13	6.037596887859856	4.733067416623779	63.1546764907701	0	0.9399999999999999	0	41.9068830563178	-10.47227879220568	0	59.38113240914596	1.03639627410231	-5.168296995024111	0	0	41.9068830563178	-10.47227879220568	0	59.38113240914596	1.03639627410231	-5.168296995024111	0	0	-5.690713808517494	0.9562380483337324	-0.5443035795840541	0.1014601860043752	3.64385593837716	-0.6204016113925556	76.8769614538265	44.98426940028483	0	0	0	-10.2534959986923	0	76.8769614538265	44.98426940028483	0	0
